<svg width="41" height="32" viewBox="0 0 41 32" fill="none" xmlns="http://www.w3.org/2000/svg">
<path d="M32.9989 23.7153C37.3648 19.3494 37.3648 12.2709 32.9989 7.90506C28.6331 3.53918 21.5546 3.53918 17.1887 7.90506C12.8228 12.2709 12.8228 19.3494 17.1887 23.7153C21.5546 28.0812 28.6331 28.0812 32.9989 23.7153Z" fill="white"/>
<path d="M26.8683 23.7154C31.2342 19.3495 31.2342 12.2711 26.8683 7.90518C22.5024 3.5393 15.424 3.5393 11.0581 7.90518C6.69221 12.2711 6.69221 19.3495 11.0581 23.7154C15.424 28.0813 22.5024 28.0813 26.8683 23.7154Z" fill="#F7A689"/>
<path d="M23.8661 17.6084C24.8592 11.5145 20.7242 5.76938 14.6303 4.77627C8.53644 3.78316 2.79129 7.91816 1.79818 14.0121C0.805073 20.1059 4.94008 25.8511 11.034 26.8442C17.1279 27.8373 22.873 23.7023 23.8661 17.6084Z" fill="#EF6250"/>
<path d="M14.5524 20.8298C14.5368 20.8298 14.5207 20.8296 14.5046 20.8288C14.0481 20.8077 13.6589 20.4916 13.545 20.0491L12.8324 17.2802L12.1197 20.0491C12.0056 20.4916 11.6164 20.8077 11.1601 20.8288C10.6963 20.8514 10.2873 20.5701 10.1334 20.1401L7.68405 13.2904C7.49062 12.7496 7.77245 12.1545 8.31323 11.9611C8.85427 11.7679 9.44912 12.0492 9.64255 12.5903L10.9503 16.2478L11.8252 12.8492C11.9435 12.3898 12.3579 12.0685 12.8324 12.0685C13.3068 12.0685 13.7213 12.3895 13.8396 12.8492L14.7144 16.2478L16.0222 12.5903C16.2156 12.0497 16.8107 11.7679 17.3515 11.9611C17.8923 12.1545 18.1741 12.7496 17.9807 13.2904L15.5313 20.1401C15.3829 20.5553 14.99 20.8298 14.5524 20.8298Z" fill="white"/>
<path d="M9.61447 16.6408H7.46462C6.89031 16.6408 6.42467 16.1752 6.42467 15.6009C6.42467 15.0266 6.89031 14.5609 7.46462 14.5609H9.61447C10.1888 14.5609 10.6544 15.0266 10.6544 15.6009C10.6544 16.1752 10.1888 16.6408 9.61447 16.6408Z" fill="white"/>
<path d="M18.2004 16.6408H16.0502C15.4759 16.6408 15.0103 16.1752 15.0103 15.6009C15.0103 15.0266 15.4759 14.5609 16.0502 14.5609H18.2004C18.7747 14.5609 19.2403 15.0266 19.2403 15.6009C19.2403 16.1752 18.7747 16.6408 18.2004 16.6408Z" fill="white"/>
</svg>
