<svg width="35" height="28" viewBox="0 0 35 28" fill="none" xmlns="http://www.w3.org/2000/svg">
<path d="M31.1866 11.9543L28.3435 24.7098C27.9315 26.5577 26.2959 27.8718 24.4073 27.8718H9.92256C8.03401 27.8718 6.39837 26.5577 5.98639 24.7098L3.14352 11.9551L31.1866 11.9543Z" fill="white"/>
<path d="M31.6232 12.8611H2.70707C1.21823 12.8611 3.8147e-05 11.6396 3.8147e-05 10.1467C3.8147e-05 8.65381 1.21823 7.43231 2.70707 7.43231H31.6234C33.1123 7.43231 34.3304 8.65381 34.3304 10.1467C34.3304 11.6396 33.1123 12.8611 31.6234 12.8611H31.6232Z" fill="#6270F4"/>
<path d="M10.091 11.8032C9.20995 11.8032 8.49578 11.0871 8.49578 10.2037V1.59956C8.49578 0.716116 9.20996 0 10.0907 0C10.9718 0 11.686 0.716116 11.686 1.59956V10.2037C11.686 11.0871 10.9718 11.8032 10.091 11.8032Z" fill="#6270F4"/>
<path d="M24.2392 11.8032C23.3582 11.8032 22.644 11.0871 22.644 10.2037V1.59956C22.644 0.716116 23.3582 0 24.239 0C25.12 0 25.8342 0.716116 25.8342 1.59956V10.2037C25.8342 11.0871 25.12 11.8032 24.2392 11.8032Z" fill="#6270F4"/>
<path d="M11.7139 24.6021C10.9937 24.6021 10.4102 24.017 10.4102 23.2949V17.0543C10.4102 16.3321 10.9937 15.747 11.7139 15.747C12.4341 15.747 13.0176 16.3321 13.0176 17.0543V23.2949C13.0176 24.017 12.4341 24.6021 11.7139 24.6021Z" fill="#D0DEF7"/>
<path d="M17.165 24.6021C16.4448 24.6021 15.8613 24.017 15.8613 23.2949V17.0543C15.8613 16.3321 16.4448 15.747 17.165 15.747C17.8852 15.747 18.4687 16.3321 18.4687 17.0543V23.2949C18.4687 24.017 17.8852 24.6021 17.165 24.6021Z" fill="#D0DEF7"/>
<path d="M22.6164 24.6021C21.8962 24.6021 21.3127 24.017 21.3127 23.2949V17.0543C21.3127 16.3321 21.8962 15.747 22.6164 15.747C23.3366 15.747 23.9201 16.3321 23.9201 17.0543V23.2949C23.9201 24.017 23.3366 24.6021 22.6164 24.6021Z" fill="#D0DEF7"/>
<path d="M25.5403 11.1504C24.9936 11.871 23.9678 12.0109 23.2492 11.4626C22.5306 10.9143 22.3911 9.88579 22.9379 9.16523C23.4846 8.44467 24.5104 8.30479 25.229 8.85306C25.9476 9.40132 26.0871 10.4299 25.5403 11.1504Z" fill="white"/>
<path d="M11.3924 11.1504C10.8456 11.871 9.81988 12.0109 9.10127 11.4626C8.38267 10.9143 8.24317 9.88579 8.78995 9.16523C9.33672 8.44467 10.3625 8.30479 11.0811 8.85306C11.7997 9.40132 11.9392 10.4299 11.3924 11.1504Z" fill="white"/>
</svg>
