<svg width="31" height="35" viewBox="0 0 31 35" fill="none" xmlns="http://www.w3.org/2000/svg">
<path d="M30.5089 17.011H4.76142V2.85009C4.76142 1.27433 6.0038 0 7.53355 0H27.7367C29.2694 0 30.5089 1.27732 30.5089 2.85009V17.011Z" fill="#2589F4"/>
<path d="M27.7367 34.0221H7.53355C6.0009 34.0221 4.76142 32.7447 4.76142 31.172V17.011H30.5089V31.172C30.5089 32.7477 29.2665 34.0221 27.7367 34.0221Z" fill="#ADB7EA"/>
<path d="M22.744 29.7275H1.56839C0.427602 29.7275 -0.330017 28.5159 0.143132 27.4504L4.76432 17.011H30.5118L25.7687 27.728C25.2288 28.9456 24.0473 29.7275 22.7469 29.7275H22.744Z" fill="white"/>
<path d="M13.101 22.4098H7.4784C6.83689 22.4098 6.3173 21.8756 6.3173 21.216C6.3173 20.5565 6.83689 20.0223 7.4784 20.0223H13.101C13.7426 20.0223 14.2621 20.5565 14.2621 21.216C14.2621 21.8756 13.7426 22.4098 13.101 22.4098Z" fill="#D0DEF7"/>
<path d="M16.9791 22.4098H16.2534C15.6119 22.4098 15.0923 21.8756 15.0923 21.216C15.0923 20.5565 15.6119 20.0223 16.2534 20.0223H16.9791C17.6206 20.0223 18.1402 20.5565 18.1402 21.216C18.1402 21.8756 17.6206 22.4098 16.9791 22.4098Z" fill="#D0DEF7"/>
<path d="M21.8209 22.4098H20.1286C19.4871 22.4098 18.9675 21.8756 18.9675 21.216C18.9675 20.5565 19.4871 20.0223 20.1286 20.0223H21.8209C22.4624 20.0223 22.982 20.5565 22.982 21.216C22.982 21.8756 22.4624 22.4098 21.8209 22.4098Z" fill="#D0DEF7"/>
<path d="M7.09814 26.2388H5.69611C5.0546 26.2388 4.535 25.7046 4.535 25.045C4.535 24.3855 5.0546 23.8513 5.69611 23.8513H7.09814C7.73965 23.8513 8.25924 24.3855 8.25924 25.045C8.25924 25.7046 7.73965 26.2388 7.09814 26.2388Z" fill="#D0DEF7"/>
<path d="M13.5539 26.2388H10.2505C9.60903 26.2388 9.08943 25.7046 9.08943 25.045C9.08943 24.3855 9.60903 23.8513 10.2505 23.8513H13.5539C14.1954 23.8513 14.715 24.3855 14.715 25.045C14.715 25.7046 14.1954 26.2388 13.5539 26.2388Z" fill="#D0DEF7"/>
<path d="M18.7527 26.2388H16.7063C16.0648 26.2388 15.5452 25.7046 15.5452 25.045C15.5452 24.3855 16.0648 23.8513 16.7063 23.8513H18.7527C19.3942 23.8513 19.9138 24.3855 19.9138 25.045C19.9138 25.7046 19.3942 26.2388 18.7527 26.2388Z" fill="#D0DEF7"/>
<path d="M22.3783 26.2388H21.9428C21.3013 26.2388 20.7817 25.7046 20.7817 25.045C20.7817 24.3855 21.3013 23.8513 21.9428 23.8513H22.3783C23.0198 23.8513 23.5394 24.3855 23.5394 25.045C23.5394 25.7046 23.0198 26.2388 22.3783 26.2388Z" fill="#D0DEF7"/>
<path d="M12.1083 6.10309H8.91236C8.27085 6.10309 7.75126 5.56888 7.75126 4.90933C7.75126 4.24978 8.27085 3.71558 8.91236 3.71558H12.1083C12.7498 3.71558 13.2694 4.24978 13.2694 4.90933C13.2694 5.56888 12.7498 6.10309 12.1083 6.10309Z" fill="white"/>
<path d="M16.2447 6.10309H15.4668C14.8253 6.10309 14.3057 5.56888 14.3057 4.90933C14.3057 4.24978 14.8253 3.71558 15.4668 3.71558H16.2447C16.8862 3.71558 17.4058 4.24978 17.4058 4.90933C17.4058 5.56888 16.8862 6.10309 16.2447 6.10309Z" fill="white"/>
<path d="M21.4174 6.10309H19.6032C18.9617 6.10309 18.4421 5.56888 18.4421 4.90933C18.4421 4.24978 18.9617 3.71558 19.6032 3.71558H21.4174C22.0589 3.71558 22.5785 4.24978 22.5785 4.90933C22.5785 5.56888 22.0589 6.10309 21.4174 6.10309Z" fill="white"/>
<path d="M14.8746 10.0455H8.91236C8.27085 10.0455 7.75126 9.51126 7.75126 8.85171C7.75126 8.19216 8.27085 7.65796 8.91236 7.65796H14.8746C15.5161 7.65796 16.0357 8.19216 16.0357 8.85171C16.0357 9.51126 15.5161 10.0455 14.8746 10.0455Z" fill="white"/>
<path d="M26.523 13.2173C27.4798 12.2336 27.4798 10.6388 26.523 9.65514C25.5663 8.67148 24.015 8.67148 23.0583 9.65514C22.1015 10.6388 22.1015 12.2336 23.0583 13.2173C24.015 14.201 25.5663 14.201 26.523 13.2173Z" fill="#EF6250"/>
</svg>
