<svg width="34" height="26" viewBox="0 0 34 26" fill="none" xmlns="http://www.w3.org/2000/svg">
<path d="M28.4756 0H8.14358C5.61802 0 3.57065 2.04737 3.57065 4.57293V17.1601C3.57065 19.6856 5.61802 21.733 8.14358 21.733H28.4756C31.0012 21.733 33.0485 19.6856 33.0485 17.1601V4.57293C33.0485 2.04737 31.0012 0 28.4756 0Z" fill="white"/>
<path d="M24.905 3.57068H4.57293C2.04737 3.57068 0 5.61805 0 8.14361V20.7308C0 23.2563 2.04737 25.3037 4.57293 25.3037H24.905C27.4305 25.3037 29.4779 23.2563 29.4779 20.7308V8.14361C29.4779 5.61805 27.4305 3.57068 24.905 3.57068Z" fill="#27C590"/>
<path d="M7.10015 9.85327H4.8113C4.17948 9.85327 3.66729 10.3655 3.66729 10.9973V13.2861C3.66729 13.9179 4.17948 14.4301 4.8113 14.4301H7.10015C7.73197 14.4301 8.24416 13.9179 8.24416 13.2861V10.9973C8.24416 10.3655 7.73197 9.85327 7.10015 9.85327Z" fill="#D7D6EA"/>
<path d="M26.2547 19.7862C26.2547 21.2766 25.0466 22.485 23.5559 22.485C22.0653 22.485 20.8575 21.2768 20.8575 19.7862C20.8575 18.2955 22.0656 17.0874 23.5559 17.0874C25.0463 17.0874 26.2547 18.2955 26.2547 19.7862Z" fill="#EF6250"/>
<path d="M22.6477 20.4036C22.9888 18.9527 22.089 17.5 20.638 17.1589C19.1871 16.8179 17.7344 17.7176 17.3934 19.1686C17.0523 20.6195 17.9521 22.0722 19.403 22.4133C20.854 22.7543 22.3067 21.8546 22.6477 20.4036Z" fill="#FFD255"/>
</svg>
